<svg xmlns="http://www.w3.org/2000/svg">

  <symbol id="logo-text" width="128" height="24" viewBox="0 0 128 24" fill="none" xmlns="http://www.w3.org/2000/svg">
    <g clip-path="url(#clip0)">
      <path d="M1.60253 22.0513C0.468358 20.3682 -0.0946573 18.3503 3.016e-05 16.3077V7.79487C-0.137317 5.73031 0.390444 3.67661 1.50238 1.94872C2.6041 0.615385 4.30676 0 6.81067 0C9.31458 0 10.9171 0.615385 11.9187 1.74359C13.006 3.17255 13.5409 4.96181 13.421 6.76923V8.82051H8.51333V6.46154C8.55297 5.76385 8.45065 5.06533 8.21286 4.41026C8.08576 4.14583 7.88431 3.9264 7.63443 3.78018C7.38455 3.63395 7.09766 3.56763 6.81067 3.58974C6.10958 3.58974 5.60879 3.79487 5.40848 4.30769C5.18191 5.03643 5.08025 5.79984 5.10801 6.5641V17.5385C5.05512 18.2799 5.19327 19.0227 5.50864 19.6923C5.70895 20.2051 6.20973 20.4103 6.91083 20.4103C7.61192 20.4103 8.01255 20.2051 8.21286 19.6923C8.44058 18.9992 8.54242 18.2692 8.51333 17.5385V15.0769H13.421V17.1282C13.5229 18.9651 12.9911 20.7803 11.9187 22.2564C10.9171 23.4872 9.21443 24.1026 6.81067 24.1026C4.40692 24 2.6041 23.3846 1.60253 22.0513Z" fill="#111111"/>
      <path d="M19.3302 0.307617H25.0391L29.2457 23.6922H24.6385L23.8372 18.7692H20.5321L19.7308 23.6922H15.0235L19.3302 0.307617ZM23.4366 15.6922L22.2347 6.56403L21.0329 15.6922H23.4366Z" fill="#111111"/>
      <path d="M32.7512 4.20505H29.3459V0.307617H41.2645V4.10249H37.8592V23.6922H32.7512V4.20505Z" fill="#111111"/>
      <path d="M50.3787 0.307617H59.1925V2.76916H53.4836V10.4615H58.0908V12.8204H53.4836V21.4358H59.1925V23.7948H50.2786V0.307617H50.3787Z" fill="#111111"/>
      <path d="M61.7966 0.307617H64L70.5102 15.7948V0.307617H73.1143V23.6922H71.1111L64.5008 7.69223V23.6922H61.7966V0.307617Z" fill="#111111"/>
      <path d="M76.119 0.307617H84.9327V2.76916H79.2238V10.4615H83.831V12.8204H79.2238V21.4358H84.9327V23.7948H76.119V0.307617Z" fill="#111111"/>
      <path d="M87.5368 0.3076H92.144C93.9564 0.179397 95.7575 0.685711 97.252 1.7435C98.3537 2.66657 98.8545 4.3076 98.8545 6.46145C98.8545 9.4358 97.9531 11.282 96.0501 11.8973L99.2551 23.5897H96.1503L93.1456 12.6153H90.6416V23.5897H87.4366V0.3076H87.5368ZM91.9437 10.3589C92.9762 10.446 94.0054 10.1553 94.8482 9.53837C95.4492 9.02555 95.7496 7.99991 95.7496 6.46145C95.7774 5.69719 95.6757 4.93378 95.4492 4.20504C95.2237 3.68211 94.8366 3.24964 94.3474 2.97427C93.6576 2.65236 92.9003 2.51137 92.144 2.56401H90.7418V10.2563H91.9437V10.3589Z" fill="#111111"/>
      <path d="M102.861 21.9489C101.82 20.1556 101.331 18.0824 101.458 16.0002V8.20531C101.434 6.719 101.602 5.23592 101.959 3.79506C102.294 2.71836 102.962 1.78243 103.862 1.12839C104.981 0.450519 106.271 0.129161 107.568 0.205314C109.671 0.205314 111.174 0.718135 112.075 1.84634C113.112 3.33607 113.608 5.15002 113.477 6.97455V7.79506H110.473V7.07711C110.477 6.21813 110.41 5.36032 110.272 4.51301C110.188 3.97756 109.9 3.49816 109.471 3.17967C108.908 2.80128 108.24 2.62124 107.568 2.66685C106.85 2.61973 106.139 2.83809 105.565 3.28224C105.329 3.48554 105.137 3.73594 104.999 4.01811C104.861 4.30029 104.781 4.60829 104.764 4.92326C104.632 5.84017 104.565 6.76567 104.563 7.69249V16.4104C104.49 17.7386 104.694 19.0676 105.164 20.3079C105.565 21.1284 106.366 21.4361 107.568 21.4361C108.043 21.4966 108.524 21.4121 108.952 21.1931C109.379 20.9741 109.734 20.6304 109.972 20.2053C110.501 18.9083 110.741 17.5067 110.673 16.1027V14.4617H107.768V12.1028H113.577V23.6925H111.574L111.274 21.0258C111.011 21.9195 110.464 22.6977 109.72 23.2366C108.976 23.7756 108.078 24.0443 107.167 24.0002C106.34 24.05 105.513 23.8887 104.761 23.5307C104.01 23.1727 103.357 22.6291 102.861 21.9489Z" fill="#111111"/>
      <path d="M119.988 15.4871L115.08 0.410156H118.085L121.59 11.6922L124.995 0.410156H128L123.092 15.4871V23.6922H120.088V15.4871H119.988Z" fill="#111111"/>
    </g>
    <defs>
      <clipPath id="clip0">
        <rect width="128" height="24" fill="white"/>
      </clipPath>
    </defs>
  </symbol>

  <symbol id="icon-vkontakte" width="30" height="22" viewBox="0 0 30 22" xmlns="http://www.w3.org/2000/svg">
    <path d="M0.0914307 5.48964C0.0914307 4.63461 0.643326 4.17356 1.74712 4.1065L6.00052 4.13165C6.28599 4.13165 6.47629 4.25739 6.57145 4.50887C7.00916 5.76626 7.4992 6.85182 8.04158 7.76552C8.58397 8.67923 9.29287 9.73125 10.1683 10.9216C10.2444 11.0725 10.3681 11.1479 10.5394 11.1479C10.6726 11.1479 10.7773 11.0892 10.8534 10.9719L10.939 10.6953L10.9676 6.34467C10.9676 6.04289 10.8867 5.84171 10.7249 5.74112C10.5632 5.64052 10.2634 5.56508 9.82573 5.51478C9.48318 5.46449 9.3119 5.28007 9.3119 4.96153C9.3119 4.89447 9.32141 4.84417 9.34044 4.81064C9.74009 3.7209 10.8819 3.17603 12.766 3.17603L14.3646 3.15088C15.0878 3.15088 15.6872 3.31015 16.163 3.62869C16.6388 3.94723 16.8767 4.45019 16.8767 5.13757V10.8461C17.0099 10.93 17.1336 10.9719 17.2478 10.9719C17.5332 10.9719 17.7806 10.821 17.99 10.5192C20.0834 7.93737 21.2157 6.21054 21.387 5.33875C21.387 5.32198 21.406 5.28007 21.4441 5.21301C21.5773 4.96153 21.7962 4.74358 22.1007 4.55916C22.4051 4.37474 22.6716 4.24901 22.9 4.18194C22.9761 4.14841 23.0617 4.13165 23.1569 4.13165H27.5816L27.867 4.1568C28.2476 4.1568 28.5426 4.31607 28.752 4.63461C28.8281 4.7352 28.8804 4.84417 28.909 4.96153C28.9375 5.07889 28.9565 5.19624 28.966 5.3136C28.9756 5.43096 28.9803 5.49802 28.9803 5.51478V5.69082C28.8471 6.3782 28.5093 7.11168 27.9669 7.89126C27.4245 8.67085 26.7347 9.51331 25.8973 10.4186C25.06 11.324 24.5366 11.9191 24.3273 12.2041C24.156 12.4053 24.0704 12.5897 24.0704 12.7574C24.0704 12.8915 24.1465 13.0424 24.2987 13.2101L28.4665 17.8373C28.6949 18.1055 28.809 18.3989 28.809 18.7174C28.809 19.103 28.6378 19.4216 28.2952 19.6731C27.9527 19.9245 27.5435 20.0671 27.0677 20.1006L26.5824 20.1257H22.2434C22.2244 20.1257 22.1863 20.1299 22.1292 20.1383C22.0721 20.1467 22.034 20.1509 22.015 20.1509C21.5963 20.1509 21.2062 19.9916 20.8446 19.6731C20.7114 19.5389 19.8169 18.5498 18.1613 16.7056C18.0661 16.5883 17.9329 16.4793 17.7616 16.3787C17.6855 16.6469 17.5856 17.0325 17.4619 17.5355C17.3382 18.0385 17.2478 18.3989 17.1907 18.6169L17.105 19.0444C16.9147 19.6312 16.5151 19.9832 15.9061 20.1006L15.5065 20.1257H12.7089C11.1293 20.1257 9.55454 19.4887 7.98449 18.2145C6.41444 16.9403 5.0014 15.2931 3.74536 13.2729C2.48932 11.2527 1.31892 8.90137 0.234162 6.21893C0.139008 6.00098 0.0914307 5.75788 0.0914307 5.48964ZM17.2478 12.003C16.8481 12.003 16.4865 11.9065 16.163 11.7137C15.8395 11.5209 15.6777 11.2569 15.6777 10.9216V5.13757C15.6777 4.80226 15.5826 4.56335 15.3923 4.42085C15.202 4.27834 14.8689 4.20709 14.3931 4.20709L12.766 4.25739C11.9477 4.25739 11.3292 4.38313 10.9105 4.63461C11.7479 4.98668 12.1665 5.5567 12.1665 6.34467V10.7707C12.1285 11.1898 11.9382 11.5377 11.5956 11.8143C11.253 12.091 10.8724 12.2293 10.4538 12.2293C9.88282 12.2293 9.44511 11.9862 9.14062 11.5C7.65621 9.52169 6.55242 7.64398 5.82924 5.86686L5.57233 5.21301L1.77566 5.18786C1.52826 5.18786 1.39029 5.20044 1.36174 5.22558C1.3332 5.25073 1.31892 5.32198 1.31892 5.43934C1.31892 5.59023 1.33795 5.7495 1.37602 5.91715L1.97549 7.32544C3.57408 10.9635 5.31065 13.8304 7.18519 15.926C9.05974 18.0217 10.901 19.0695 12.7089 19.0695H15.5635C15.6777 19.0695 15.7634 19.0402 15.8205 18.9815C15.8776 18.9228 15.9251 18.8097 15.9632 18.642L16.0203 18.3905L16.5627 16.1775C16.7149 15.8757 16.8481 15.6745 16.9623 15.574C17.1717 15.3895 17.4191 15.2973 17.7045 15.2973C18.1613 15.2973 18.6275 15.5404 19.1033 16.0266L21.5297 18.7426C21.682 18.9605 21.8437 19.0695 22.015 19.0695H26.7252C27.2961 19.0695 27.5816 18.9438 27.5816 18.6923C27.5816 18.6085 27.553 18.5246 27.4959 18.4408L23.3567 13.889C23.0332 13.537 22.8714 13.1598 22.8714 12.7574C22.8714 12.355 23.0237 11.9694 23.3281 11.6006C23.5755 11.2653 24.0561 10.7078 24.7697 9.92825C25.4834 9.14866 26.1067 8.41937 26.6395 7.74038C27.1724 7.06138 27.5245 6.44526 27.6957 5.892L27.7814 5.56508C27.7623 5.53155 27.7528 5.47706 27.7528 5.40162C27.7528 5.32617 27.7433 5.2633 27.7243 5.21301H23.2425C22.957 5.3136 22.7287 5.46449 22.5574 5.66567L22.3861 6.14348C21.9103 7.30029 20.6638 9.08579 18.6465 11.5C18.2469 11.8353 17.7806 12.003 17.2478 12.003Z"/>
  </symbol>

  <symbol id="icon-facebook" width="28" height="33" viewBox="0 0 28 33" fill="none" xmlns="http://www.w3.org/2000/svg">
    <path d="M21 2.75H17.5C15.9529 2.75 14.4692 3.46024 13.3752 4.72447C12.2813 5.98871 11.6667 7.70337 11.6667 9.49127V13.536H8.16669V18.929H11.6667V29.7151H16.3334V18.929H19.8334L21 13.536H16.3334V9.49127C16.3334 9.13369 16.4563 8.79076 16.6751 8.53791C16.8939 8.28506 17.1906 8.14302 17.5 8.14302H21V2.75Z" stroke-width="1.1" stroke-linecap="round" stroke-linejoin="round"/>
  </symbol>

  <symbol id="icon-instagram" width="23" height="23" viewBox="0 0 23 23" xmlns="http://www.w3.org/2000/svg">
    <path d="M11.4775 0.0898438C13.3942 0.0898438 14.959 0.112305 16.1719 0.157227C17.2051 0.202148 18.126 0.381836 18.9346 0.696289C19.7132 0.995768 20.387 1.43001 20.9561 1.99902C21.5251 2.56803 21.9593 3.24186 22.2588 4.02051C22.5732 4.8291 22.7529 5.75 22.7979 6.7832C22.8428 7.99609 22.8652 9.56087 22.8652 11.4775C22.8652 13.3942 22.8428 14.959 22.7979 16.1719C22.7529 17.2051 22.5732 18.126 22.2588 18.9346C21.9593 19.7132 21.5251 20.387 20.9561 20.9561C20.387 21.5251 19.7132 21.9593 18.9346 22.2588C18.126 22.5732 17.2051 22.7529 16.1719 22.7978C14.959 22.8428 13.3942 22.8652 11.4775 22.8652C9.56087 22.8652 7.99609 22.8428 6.7832 22.7978C5.75 22.7529 4.8291 22.5732 4.02051 22.2588C3.24186 21.9593 2.56803 21.5251 1.99902 20.9561C1.43001 20.387 0.995768 19.7132 0.696289 18.9346C0.381836 18.126 0.202148 17.2051 0.157227 16.1719C0.112305 14.959 0.0898438 13.3942 0.0898438 11.4775C0.0898438 9.56087 0.112305 7.99609 0.157227 6.7832C0.202148 5.75 0.381836 4.8291 0.696289 4.02051C0.995768 3.24186 1.43001 2.56803 1.99902 1.99902C2.56803 1.43001 3.24186 0.995768 4.02051 0.696289C4.8291 0.381836 5.75 0.202148 6.7832 0.157227C7.99609 0.112305 9.56087 0.0898438 11.4775 0.0898438ZM11.4775 1.57227C9.486 1.57227 7.86133 1.59473 6.60352 1.63965C5.79492 1.6696 5.04622 1.81185 4.35742 2.06641C3.2793 2.51562 2.51562 3.2793 2.06641 4.35742C1.81185 5.04622 1.6696 5.79492 1.63965 6.60352C1.59473 7.86133 1.57227 9.486 1.57227 11.4775C1.57227 13.4691 1.59473 15.0937 1.63965 16.3516C1.6696 17.1602 1.81185 17.9089 2.06641 18.5977C2.51562 19.6758 3.2793 20.4395 4.35742 20.8887C5.04622 21.1432 5.79492 21.2855 6.60352 21.3154C7.86133 21.3603 9.486 21.3828 11.4775 21.3828C13.4691 21.3828 15.0938 21.3603 16.3516 21.3154C17.1602 21.2855 17.9089 21.1432 18.5977 20.8887C19.6758 20.4395 20.4395 19.6758 20.8887 18.5977C21.1432 17.9089 21.2855 17.1602 21.3154 16.3516C21.3604 15.0937 21.3828 13.4691 21.3828 11.4775C21.3828 9.486 21.3604 7.86133 21.3154 6.60352C21.2855 5.79492 21.1432 5.04622 20.8887 4.35742C20.4395 3.2793 19.6758 2.51562 18.5977 2.06641C17.9089 1.81185 17.1602 1.6696 16.3516 1.63965C15.0938 1.59473 13.4691 1.57227 11.4775 1.57227ZM11.4775 16.0371C12.7354 16.0371 13.8097 15.5916 14.7007 14.7007C15.5916 13.8097 16.0371 12.7354 16.0371 11.4775C16.0371 10.2197 15.5916 9.14534 14.7007 8.25439C13.8097 7.36344 12.7354 6.91797 11.4775 6.91797C10.2197 6.91797 9.14534 7.36344 8.25439 8.25439C7.36344 9.14534 6.91797 10.2197 6.91797 11.4775C6.91797 12.7354 7.36344 13.8097 8.25439 14.7007C9.14534 15.5916 10.2197 16.0371 11.4775 16.0371ZM11.4775 5.63769C13.0947 5.63769 14.4723 6.20671 15.6104 7.34473C16.7484 8.48275 17.3174 9.86035 17.3174 11.4775C17.3174 13.0947 16.7484 14.4723 15.6104 15.6104C14.4723 16.7484 13.0947 17.3174 11.4775 17.3174C9.86035 17.3174 8.48275 16.7484 7.34473 15.6104C6.20671 14.4723 5.6377 13.0947 5.6377 11.4775C5.6377 9.86035 6.20671 8.48275 7.34473 7.34473C8.48275 6.20671 9.86035 5.63769 11.4775 5.63769ZM18.9346 5.41309C18.9346 5.78743 18.7998 6.10563 18.5303 6.36768C18.2607 6.62972 17.9313 6.76074 17.542 6.76074C17.1676 6.76074 16.8494 6.62972 16.5874 6.36768C16.3254 6.10563 16.1943 5.78743 16.1943 5.41309C16.1943 5.02376 16.3254 4.69434 16.5874 4.4248C16.8494 4.15527 17.1676 4.02051 17.542 4.02051C17.9163 4.02051 18.242 4.15902 18.519 4.43603C18.7961 4.71305 18.9346 5.03874 18.9346 5.41309Z"/>
  </symbol>


  <symbol id="icon-htmlacademy" width="27" height="34" viewBox="0 0 27 34" xmlns="http://www.w3.org/2000/svg">
    <path d="M13.6426 0.0157537L13.5 0L0 1.40733V26.0129L13.5 34L27 26.0129V1.40733L13.6426 0.0157537ZM25.2344 25.0151L13.5 31.9573L1.76561 25.0151V14.9293L13.4507 21.8451L13.4701 23.0984L5.45351 18.3548L5.44295 19.5801L13.4894 24.3885L13.5088 25.675L5.46408 20.9174L5.45351 22.1427L13.5 26.9511L21.6239 22.1182V20.8929V16.909L25.2432 14.7595L25.2344 25.0151ZM25.2344 13.4519L22.0147 15.3319L20.5325 16.2071L13.4666 12.0201L13.456 13.2454L19.4957 16.818L19.4429 16.8495L19.3126 16.9247L18.4536 17.4166L13.4666 14.4689L13.456 15.6942L17.3921 18.0222L16.4591 18.6314L16.438 18.6436L13.4666 16.902L13.456 18.1273L15.4029 19.2615L13.4155 20.4483L1.7973 13.5762L13.4349 6.61831L25.2344 13.4519ZM25.2344 12.2266L13.4401 5.31075L1.76561 12.2196V2.9897L13.5 1.76442L25.2344 2.9897V12.2266Z"/>
  </symbol>

</svg>
